<?xml version="1.0" encoding="UTF-8" standalone="no"?>
<!-- Created with Inkscape (http://www.inkscape.org/) -->

<!--
<svg width="100" height="100" viewBox="0 0 26.458333 26.458334">
  <g transform="translate(0,-270.54165)">
    <path transform="matrix(0.70228149,0.71189937,-0.76099102,0.64876241,0,0)" d="m 212.01222,189.04253 h 26.2017 c 0.70112,0 1.26556,0.57851 1.26556,1.29712 v 0.0943 c 0,0.71861 -0.56444,1.29713 -1.26556,1.29713 h -26.2017 c -0.70112,0 -1.26556,-0.57852 -1.26556,-1.29713 v -0.0943 c 0,-0.71861 0.56444,-1.29712 1.26556,-1.29712 z" />
    <path transform="matrix(-0.71145348,0.70273319,-0.6492453,-0.76057909,0,0)" d="m 161.55114,-213.07759 h 26.20171 c 0.70111,0 1.26555,0.57852 1.26555,1.29713 v 0.0943 c 0,0.71861 -0.56444,1.29713 -1.26555,1.29713 h -26.20171 c -0.70112,0 -1.26556,-0.57852 -1.26556,-1.29713 v -0.0943 c 0,-0.71861 0.56444,-1.29713 1.26556,-1.29713 z" />
  </g>
</svg>
-->

<svg
   xmlns:dc="http://purl.org/dc/elements/1.1/"
   xmlns:cc="http://creativecommons.org/ns#"
   xmlns:rdf="http://www.w3.org/1999/02/22-rdf-syntax-ns#"
   xmlns:svg="http://www.w3.org/2000/svg"
   xmlns="http://www.w3.org/2000/svg"
   xmlns:sodipodi="http://sodipodi.sourceforge.net/DTD/sodipodi-0.dtd"
   xmlns:inkscape="http://www.inkscape.org/namespaces/inkscape"
   width="100"
   height="100"
   viewBox="0 0 26.458333 26.458334"
   version="1.1"
   id="svg2118"
   inkscape:version="0.92.2 (5c3e80d, 2017-08-06)"
   sodipodi:docname="close-icon.svg">
  <defs
     id="defs2112" />
  <sodipodi:namedview
     id="base"
     pagecolor="#ffffff"
     bordercolor="#666666"
     borderopacity="1.0"
     inkscape:pageopacity="0.0"
     inkscape:pageshadow="2"
     inkscape:zoom="5.6"
     inkscape:cx="51.12749"
     inkscape:cy="37.015724"
     inkscape:document-units="mm"
     inkscape:current-layer="layer1"
     showgrid="false"
     units="px"
     inkscape:window-width="1920"
     inkscape:window-height="1051"
     inkscape:window-x="-9"
     inkscape:window-y="-9"
     inkscape:window-maximized="1" />
  <metadata
     id="metadata2115">
    <rdf:RDF>
      <cc:Work
         rdf:about="">
        <dc:format>image/svg+xml</dc:format>
        <dc:type
           rdf:resource="http://purl.org/dc/dcmitype/StillImage" />
        <dc:title></dc:title>
      </cc:Work>
    </rdf:RDF>
  </metadata>
  <g
     inkscape:label="Layer 1"
     inkscape:groupmode="layer"
     id="layer1"
     transform="translate(0,-270.54165)">
    <path
       style="opacity:0.97000002;fill:#000000;fill-opacity:1;stroke:none;stroke-width:0.35803688;stroke-miterlimit:4;stroke-dasharray:none;stroke-opacity:0.96517412"
       d="M 3.4319567,271.43409 25.48782,293.87321 c 0.590184,0.60043 0.53763,1.5353 -0.117846,2.09614 l -0.08602,0.0736 c -0.655474,0.56083 -1.658298,0.52896 -2.248481,-0.0714 L 0.97961485,273.53238 C 0.38943146,272.93192 0.44199447,271.99703 1.0974695,271.4362 l 0.086015,-0.0736 c 0.6554751,-0.56084 1.6582889,-0.52893 2.2484721,0.0715 z"
       id="rect2120"
       inkscape:connector-curvature="0" />
    <path
       style="opacity:0.97000002;fill:#000000;fill-opacity:1;stroke:none;stroke-width:0.35803688;stroke-miterlimit:4;stroke-dasharray:none;stroke-opacity:0.96517412"
       d="M 25.451795,273.85768 3.1078669,296.00787 c -0.5978828,0.5927 -1.5294234,0.54054 -2.0886469,-0.11695 l -0.0733849,-0.0863 c -0.55922354,-0.6575 -0.5280936,-1.66398 0.0697892,-2.2567 L 23.359552,271.39773 c 0.597892,-0.5927 1.529432,-0.54053 2.088655,0.11696 l 0.07338,0.0863 c 0.559222,0.6575 0.528092,1.66398 -0.0698,2.25669 z"
       id="rect2120-3"
       inkscape:connector-curvature="0" />
  </g>
</svg>
