<?xml version="1.0" encoding="UTF-8" standalone="no"?>
<!-- Created with Inkscape (http://www.inkscape.org/) -->
<!--
<svg width="340px" height="100px" viewBox="0 0 1698.000000 485.000000" preserveAspectRatio="xMidYMid meet">
  <g
     transform="translate(0,485) scale(0.1,-0.1)"
     fill="#000">
      V
     <path d="m 1984.2031,4255.0418 c 0,0 158.875,-404.2198 357.875,-876.2198 l 363.3315,-861.0661 39.6686,0.067 49.4255,0.111 c 0,0 77.5744,161.889 256.5745,587.8891 60,142.9999 144,343.9999 308,731 94,222.9985 175.2343,417.921 171.2344,417.9204 L 3326,4254.7124 c 0,0 -74.9218,-174.8909 -149.9219,-358.8909 -351,-862 -421,-1030 -426,-1030 -4,0 -34,69 -68,153.0001 -33,82.9999 -84,208 -112,277 -60,144 -219,535 -295,725 -29,72 -63,153 -76,180 l -24,50 -2.258,4.3568 -88.8045,-0.4193 z" />
     V
     <path d="m 3849.383,4255.0418 c 0,0 158.875,-404.2198 357.875,-876.2198 l 363.3314,-861.0661 39.6686,0.067 49.4256,0.111 c 0,0 77.5744,161.889 256.5745,587.8891 60,142.9999 144,343.9999 308,731 94,222.9985 175.2343,417.921 171.2344,417.9204 l -204.3126,-0.031 c 0,0 -74.9218,-174.8908 -149.9219,-358.8908 -351,-862 -421,-1030.0001 -426,-1030.0001 -4,0 -34,69 -68,153.0001 -33,82.9999 -84,208 -112,277 -60,144 -219,535 -295,725 -29,72 -63,153 -76,180 l -24,50 -2.258,4.3568 -88.8045,-0.4193 z"/>
     V
     <path d="m 134.125,4255.0415 c 0,0 158.875,-404.2197 357.875,-876.2197 l 363.33146,-861.066 39.66854,0.066 49.42558,0.111 c 0,0 77.57442,161.889 256.57442,587.889 60,143 144,344 308,731 94,223 175.2344,417.9224 171.2344,417.9218 l -204.3126,-0.031 c 0,0 -74.9218,-174.8909 -149.9218,-358.8909 -351,-862 -421,-1030 -426,-1030 -4,0 -34,69 -68,153 -33,83 -84,208 -112,277 -60,144 -219,535 -295,725 -29,72 -63,152.9999 -76,179.9999 l -24,50 -2.25797,4.3569 -88.80453,-0.4194 z" />
      left wing
     <path d="M6272 4708 c-50 -99 -21 -230 79 -350 23 -26 39 -48 36 -48 -3 0 -35 25 -72 55 -37 30 -71 53 -75 50 -7 -4 -23 -59 -34 -115 -8 -42 16 -87 84 -157 36 -38 99 -104 140 -147 86 -90 103 -96 -145 48 l-130 75 -17 -27 c-9 -15 -26 -50 -37 -78 l-20 -52 22 -20 c12 -11 66 -52 121 -91 54 -39 94 -71 88 -71 -5 0 -53 16 -106 35 -53 19 -104 35 -111 35 -22 0 -19 -76 4 -126 17 -38 32 -49 158 -119 161 -90 186 -106 181 -110 -1 -1 -64 6 -138 15 -74 10 -138 16 -143 13 -5 -3 -7 -28 -5 -55 7 -67 34 -92 128 -119 41 -12 79 -25 83 -29 5 -4 -41 -20 -102 -35 l-111 -27 0 -43 c0 -35 4 -44 21 -48 19 -5 191 8 232 17 18 4 18 4 1 -15 -10 -11 -58 -52 -106 -91 -48 -39 -88 -74 -88 -77 0 -10 46 -71 57 -75 7 -3 42 8 77 24 36 17 68 30 72 30 3 0 -4 -16 -16 -36 -12 -19 -20 -37 -17 -40 3 -3 22 2 42 10 51 21 51 21 17 -21 -40 -51 -56 -84 -45 -93 16 -15 85 -29 116 -23 28 6 30 4 23 -18 -3 -13 -9 -51 -12 -84 -5 -51 -3 -64 14 -85 18 -22 23 -23 41 -12 20 11 21 10 21 -27 0 -48 28 -86 56 -77 11 3 33 27 50 53 26 42 29 44 32 22 6 -46 23 -99 31 -99 7 0 41 70 41 85 0 3 -7 5 -15 5 -13 0 -35 55 -35 88 0 17 -4 16 -54 -19 -47 -34 -76 -34 -76 0 0 11 -14 33 -31 51 -30 30 -31 33 -27 105 l3 74 -35 3 c-42 4 -50 29 -26 89 16 39 16 39 -8 39 -38 0 -50 23 -31 60 19 36 29 37 -98 -3 -59 -18 -69 -19 -78 -7 -10 16 -13 13 128 135 l81 70 -100 3 c-122 3 -125 16 -10 52 l82 25 -110 58 c-102 54 -110 60 -110 88 0 30 0 30 48 24 122 -14 226 -24 229 -22 1 2 -71 54 -161 116 -139 96 -165 118 -170 144 -3 17 -5 32 -3 34 2 2 62 -10 133 -26 71 -16 130 -28 132 -27 1 2 -40 41 -92 87 -94 83 -94 84 -95 132 -1 33 3 47 12 47 8 0 74 -20 147 -45 73 -25 134 -44 136 -43 1 2 -43 55 -98 118 -206 236 -191 214 -183 260 4 23 12 40 20 40 7 0 48 -19 90 -41 42 -23 78 -39 80 -37 3 2 -29 59 -71 127 l-75 123 8 55 8 56 235 -231 234 -231 -17 -143 c-25 -201 -74 -630 -81 -708 l-5 -65 71 -75 c213 -223 281 -292 273 -279 -30 51 -197 293 -231 335 l-41 50 27 195 c16 107 42 296 60 422 l31 227 -48 63 c-171 222 -439 513 -524 567 -25 17 -48 30 -51 30 -2 0 -10 -10 -16 -22z" />
      right wing
     <path d="M9418 4639 c-175 -52 -439 -164 -711 -301 -151 -75 -207 -108 -249 -147 -57 -51 -142 -315 -263 -814 -57 -236 -70 -279 -88 -289 -65 -33 -284 -193 -406 -296 -14 -11 -13 -12 4 -3 11 5 119 70 239 143 l220 133 21 110 c31 153 114 442 268 924 8 23 26 43 57 63 59 39 472 243 630 312 164 72 171 64 66 -75 -42 -54 -75 -99 -73 -99 2 0 50 9 106 21 57 11 105 19 107 16 2 -2 1 -24 -2 -48 -6 -43 -10 -46 -131 -134 -68 -49 -129 -95 -134 -102 -7 -8 13 -13 78 -17 201 -15 202 -23 18 -137 -74 -46 -135 -87 -135 -90 0 -3 41 -11 92 -18 125 -18 119 -13 100 -72 l-16 -50 -126 -67 -125 -66 69 -13 c77 -14 81 -17 89 -53 6 -24 -1 -29 -86 -74 -251 -133 -248 -131 -145 -122 42 4 79 3 82 -2 3 -5 2 -22 -3 -37 -7 -27 -14 -31 -132 -62 -298 -80 -359 -97 -359 -103 0 -3 74 -51 164 -105 l165 -99 -17 -28 c-22 -37 -38 -41 -111 -24 -33 8 -61 12 -61 10 0 -2 14 -10 30 -19 32 -16 38 -41 18 -67 -12 -15 -23 -15 -133 7 -66 12 -122 21 -124 20 -2 -2 25 -39 60 -82 34 -43 67 -84 72 -90 18 -24 -12 -43 -69 -43 -30 0 -54 -3 -54 -6 0 -3 16 -26 36 -52 l35 -47 -21 -17 c-21 -17 -24 -17 -70 8 l-48 26 -44 -24 c-39 -22 -43 -27 -43 -63 0 -35 -3 -40 -26 -43 -19 -2 -45 13 -100 57 l-74 59 -3 -104 c-1 -57 -4 -104 -6 -104 -2 0 -17 5 -35 11 -22 8 -39 25 -57 58 -13 25 -22 37 -20 26 3 -11 10 -41 17 -67 l11 -48 64 0 c73 0 70 -5 54 99 -6 35 -9 65 -7 67 2 2 30 -19 63 -47 97 -82 174 -89 174 -15 0 22 8 40 25 56 l25 24 34 -33 34 -33 46 31 c25 17 47 35 50 40 3 4 -8 29 -24 55 -17 26 -30 49 -30 52 0 2 18 -5 40 -16 21 -11 46 -20 54 -20 16 0 56 46 56 64 0 6 -32 48 -70 94 -39 45 -66 82 -61 82 5 0 68 -23 141 -51 143 -56 140 -56 204 -5 l28 24 -38 36 -39 35 60 1 c59 0 61 1 93 42 18 23 32 44 32 48 0 3 -76 43 -169 90 -93 46 -179 91 -192 100 -21 17 -21 17 32 24 240 31 378 97 433 207 14 29 26 61 26 71 0 11 20 27 57 45 59 29 144 107 177 163 l18 32 -101 -4 c-56 -1 -101 0 -101 5 0 4 5 7 12 7 6 0 48 18 93 40 91 44 148 97 164 155 18 66 13 69 -123 61 -66 -4 -118 -5 -116 -3 3 3 39 19 80 36 137 57 210 125 210 196 l0 28 -107 -7 c-60 -4 -119 -9 -133 -12 -22 -5 -23 -4 -8 8 10 7 45 29 80 48 123 70 217 179 218 253 0 23 -3 27 -22 22 -13 -3 -76 -18 -140 -34 -65 -15 -118 -27 -118 -25 0 2 38 24 85 51 105 58 186 129 214 186 43 88 25 94 -131 46z"/>
     head
     <path d="M7595 3797 c-119 -62 -169 -96 -285 -193 -49 -41 -90 -74 -93 -74 -3 0 -8 23 -12 50 -4 30 -12 49 -18 47 -6 -2 -35 -48 -64 -103 -69 -129 -71 -165 -12 -253 31 -46 46 -61 58 -56 33 13 180 44 306 65 l130 22 115 84 c63 47 145 106 182 132 38 26 62 48 55 50 -6 1 -111 -18 -231 -43 -121 -24 -222 -43 -224 -40 -2 2 43 80 100 172 58 92 108 174 112 181 13 22 -18 12 -119 -41z"/>
      body
     <path d="M7164 2875 c-7 -30 -12 -31 -30 -7 -12 15 -13 15 -14 1 0 -22 -83 -189 -168 -337 -88 -155 -106 -216 -100 -353 3 -94 7 -111 39 -179 45 -96 118 -183 205 -247 66 -47 156 -103 168 -103 3 0 6 14 6 30 0 56 53 193 143 370 116 230 130 271 130 390 0 107 -21 183 -78 285 -31 56 -117 166 -135 173 -5 2 -11 -11 -15 -28 -6 -27 -10 -31 -30 -26 -14 4 -25 1 -29 -7 -3 -8 -17 2 -38 26 -39 44 -46 45 -54 12z"/>
      tail
     <path d="M9233 2525 c-119 -33 -236 -92 -351 -177 -78 -58 -233 -208 -301 -293 -80 -100 -208 -225 -280 -274 -34 -24 -97 -59 -139 -79 -69 -33 -84 -36 -169 -37 l-93 -1 -36 -60 c-19 -32 -42 -66 -50 -75 -14 -15 -11 -18 33 -33 134 -44 380 -60 546 -35 314 47 666 203 995 441 46 33 85 58 87 56 8 -8 -24 -137 -53 -211 -136 -351 -474 -597 -962 -702 -111 -24 -158 -28 -410 -35 -310 -9 -405 -21 -555 -71 -217 -72 -362 -215 -395 -388 -29 -155 -2 -250 95 -339 60 -55 109 -72 202 -72 l58 1 -40 21 c-130 67 -156 163 -83 300 47 89 199 243 253 257 145 37 288 54 514 58 244 6 369 -3 561 -38 233 -43 390 -33 600 37 168 56 371 176 508 299 134 122 252 302 302 460 18 58 22 94 22 206 0 120 -3 144 -27 215 -84 251 -290 479 -502 555 -76 28 -255 35 -330 14z"/>
     r
     <path d="m 10135,3746 c -83,-26 -162,-92 -209,-176 -14,-25 -26,-40 -26,-35 -1,6 -1,54 0,108 l 1,97 h -50 -51 l -2,-500 c -2,-275 -1.025,-519.5173 -1.025,-519.5173 l 96.4775,-0.1397 c 0,0 0.9214,181.657 2.9214,349.657 2,294 9.6261,307 32.6261,363 33,84 96,156 165,192 50,25 69,29 130,29 39,-1 90,-8 114,-17 l 42,-16 v 59 59 l -37,10 c -51,14 -159,13 -208,-3 z"/>
     o
     <path d="M10990 3741 c-91 -24 -165 -66 -236 -136 -99 -98 -144 -210 -144 -361 0 -107 14 -176 50 -250 82 -168 242 -267 455 -281 270 -17 494 121 567 350 29 89 28 257 -1 348 -39 122 -136 234 -254 295 -99 52 -309 69 -437 35z m322 -101 c180 -55 288 -207 288 -406 0 -194 -113 -351 -292 -405 -93 -29 -253 -23 -341 11 -82 33 -176 121 -211 200 -115 255 7 534 264 606 73 20 218 17 292 -6z"/>
     c
     <path d="M12414 3741 c-188 -51 -316 -173 -368 -350 -21 -71 -21 -234 0 -314 35 -135 124 -246 244 -305 215 -106 521 -69 666 79 l38 39 -34 34 -33 35 -44 -39 c-148 -130 -406 -148 -575 -41 -224 142 -236 536 -22 693 91 67 143 82 284 83 120 0 128 -1 191 -31 37 -18 85 -48 107 -69 44 -39 58 -39 95 3 22 24 15 42 -31 79 -106 84 -189 113 -337 119 -87 3 -125 0 -181 -15z" />
     ł
     <path d="m 13460,3776 v -374 l -72,-27 -158.377,-59.7914 L 13230,3266 c 0.191,-24.9993 0.02,-47.2309 0.02,-47.2309 0,0 60.98,17.2309 111.98,36.2309 51,19 99,35 106,35 9,0 12,-64 12,-285 v -285 h 50 50 v 308 309 l 118,44 121.685,45.757 -0.221,46.243 0.235,51.7367 c 0,0 -196.213,-71.2543 -238.584,-84.6932 v -15 c 0,0 -1.115,79.9565 -1.115,374.9565 v 350 h -50 -50 z"/>
     a
     <path d="m 14408,3745 c -179,-45 -300,-162 -354,-340 -25,-82 -25,-258 0,-340 41,-136 127,-243 239,-298 172,-84 440,-71 587,28 29,19 60.625,39.2187 60.625,39.2187 2.38,-1.1508 2.078,-59.7343 2.078,-59.7343 l 0.422,-54.6406 49.406,-0.6563 L 15040,2719 v 510 511 h -49 -50 l -0.188,-50.1719 -0.187,-50.4687 L 14880,3676 c -86,54 -167,76 -300,80 -78,2 -133,-1 -172,-11 z m 315,-100 c 68,-18 128,-47 180,-87 l 37,-30 v -293 -294 l -35,-29 c -84,-69 -193,-102 -337,-102 -286,0 -443,173 -426,470 11,181 103,303 273,362 64,22 228,24 308,3 z"/>
     w
     <path d="m 15350.293,3749.8849 c 0,0 58.707,-184.8849 130.707,-379.8849 72,-195 154.828,-418.8283 182.828,-495.8283 27,-77 60.243,-151.1717 60.243,-151.1717 l 3.37,-7.7261 47.368,-0.039 4.363,11.7647 c 0,0 74.828,190 156.828,413 81,223 149,407 151,409 8,11 11,1 304,-775 4.109,-11.0934 25.933,-60.6965 25.933,-60.6965 l 42.524,-0.4185 4.543,11.115 376,1015 2.974,10.3629 -96.002,0.2381 c 0,0 -37.972,-91.601 -66.972,-174.601 -159,-457 -234,-665 -239,-665 -4,0 -76,189 -160,420 -100.291,272.6876 -155.357,401.8945 -155.357,401.8945 l -7.366,18.0469 -50.379,0.039 -4.898,-11.9802 c 0,0 -38,-96 -75,-198 -37,-102 -105,-285 -149,-408 -45,-123 -85,-219 -89,-215 -4,4 -30,73 -58,153 -148,425 -249.514,679.6138 -249.514,679.6138 z"/>
  </g>
</svg> -->

<svg

   xmlns:cc="http://creativecommons.org/ns#"
   xmlns:rdf="http://www.w3.org/1999/02/22-rdf-syntax-ns#"
   xmlns:svg="http://www.w3.org/2000/svg"
   xmlns="http://www.w3.org/2000/svg"
   xmlns:sodipodi="http://sodipodi.sourceforge.net/DTD/sodipodi-0.dtd"
   xmlns:inkscape="http://www.inkscape.org/namespaces/inkscape"
   version="1.0"
   width="1698.000000pt"
   height="485.000000pt"
   viewBox="0 0 1698.000000 485.000000"
   preserveAspectRatio="xMidYMid meet"
   id="svg1208"
   sodipodi:docname="logo--vvv-mystic.svg"
   inkscape:version="0.92.2 (5c3e80d, 2017-08-06)">
  <defs
     id="defs1212" />
  <sodipodi:namedview
     pagecolor="#ffffff"
     bordercolor="#666666"
     borderopacity="1"
     objecttolerance="10"
     gridtolerance="10"
     guidetolerance="10"
     inkscape:pageopacity="0"
     inkscape:pageshadow="2"
     inkscape:window-width="1920"
     inkscape:window-height="1051"
     id="namedview1210"
     showgrid="false"
     showguides="true"
     inkscape:guide-bbox="true"
     inkscape:zoom="0.35355339"
     inkscape:cx="1426.7851"
     inkscape:cy="977.93423"
     inkscape:window-x="-9"
     inkscape:window-y="-9"
     inkscape:window-maximized="1"
     inkscape:current-layer="g1206" />
  <metadata
     id="metadata1176">
  </metadata>
  <g
     transform="translate(0.000000,485.000000) scale(0.100000,-0.100000)"
     fill="#000000"
     stroke="none"
     id="g1206">
    <path
       d="m 10135,3746 c -83,-26 -162,-92 -209,-176 -14,-25 -26,-40 -26,-35 -1,6 -1,54 0,108 l 1,97 h -50 -51 l -2,-500 c -2,-275 -1.025,-519.5173 -1.025,-519.5173 l 96.4775,-0.1397 c 0,0 0.9214,181.657 2.9214,349.657 2,294 9.6261,307 32.6261,363 33,84 96,156 165,192 50,25 69,29 130,29 39,-1 90,-8 114,-17 l 42,-16 v 59 59 l -37,10 c -51,14 -159,13 -208,-3 z"
       id="path1192"
       inkscape:connector-curvature="0"
       sodipodi:nodetypes="cccccccccccccccccccc" />
    <rect
       style="opacity:0.97000002;fill:#ffffff;fill-opacity:0.99004977;stroke:#b8bce2;stroke-width:8.50393772;stroke-miterlimit:4;stroke-dasharray:none;stroke-opacity:0.96517412"
       id="rect1214"
       width="96.635559"
       height="96.490952"
       x="13790.584"
       y="-3240.1287"
       transform="scale(1,-1)"
       ry="0"
       rx="0" />
    <path
       d="M6272 4708 c-50 -99 -21 -230 79 -350 23 -26 39 -48 36 -48 -3 0 -35 25 -72 55 -37 30 -71 53 -75 50 -7 -4 -23 -59 -34 -115 -8 -42 16 -87 84 -157 36 -38 99 -104 140 -147 86 -90 103 -96 -145 48 l-130 75 -17 -27 c-9 -15 -26 -50 -37 -78 l-20 -52 22 -20 c12 -11 66 -52 121 -91 54 -39 94 -71 88 -71 -5 0 -53 16 -106 35 -53 19 -104 35 -111 35 -22 0 -19 -76 4 -126 17 -38 32 -49 158 -119 161 -90 186 -106 181 -110 -1 -1 -64 6 -138 15 -74 10 -138 16 -143 13 -5 -3 -7 -28 -5 -55 7 -67 34 -92 128 -119 41 -12 79 -25 83 -29 5 -4 -41 -20 -102 -35 l-111 -27 0 -43 c0 -35 4 -44 21 -48 19 -5 191 8 232 17 18 4 18 4 1 -15 -10 -11 -58 -52 -106 -91 -48 -39 -88 -74 -88 -77 0 -10 46 -71 57 -75 7 -3 42 8 77 24 36 17 68 30 72 30 3 0 -4 -16 -16 -36 -12 -19 -20 -37 -17 -40 3 -3 22 2 42 10 51 21 51 21 17 -21 -40 -51 -56 -84 -45 -93 16 -15 85 -29 116 -23 28 6 30 4 23 -18 -3 -13 -9 -51 -12 -84 -5 -51 -3 -64 14 -85 18 -22 23 -23 41 -12 20 11 21 10 21 -27 0 -48 28 -86 56 -77 11 3 33 27 50 53 26 42 29 44 32 22 6 -46 23 -99 31 -99 7 0 41 70 41 85 0 3 -7 5 -15 5 -13 0 -35 55 -35 88 0 17 -4 16 -54 -19 -47 -34 -76 -34 -76 0 0 11 -14 33 -31 51 -30 30 -31 33 -27 105 l3 74 -35 3 c-42 4 -50 29 -26 89 16 39 16 39 -8 39 -38 0 -50 23 -31 60 19 36 29 37 -98 -3 -59 -18 -69 -19 -78 -7 -10 16 -13 13 128 135 l81 70 -100 3 c-122 3 -125 16 -10 52 l82 25 -110 58 c-102 54 -110 60 -110 88 0 30 0 30 48 24 122 -14 226 -24 229 -22 1 2 -71 54 -161 116 -139 96 -165 118 -170 144 -3 17 -5 32 -3 34 2 2 62 -10 133 -26 71 -16 130 -28 132 -27 1 2 -40 41 -92 87 -94 83 -94 84 -95 132 -1 33 3 47 12 47 8 0 74 -20 147 -45 73 -25 134 -44 136 -43 1 2 -43 55 -98 118 -206 236 -191 214 -183 260 4 23 12 40 20 40 7 0 48 -19 90 -41 42 -23 78 -39 80 -37 3 2 -29 59 -71 127 l-75 123 8 55 8 56 235 -231 234 -231 -17 -143 c-25 -201 -74 -630 -81 -708 l-5 -65 71 -75 c213 -223 281 -292 273 -279 -30 51 -197 293 -231 335 l-41 50 27 195 c16 107 42 296 60 422 l31 227 -48 63 c-171 222 -439 513 -524 567 -25 17 -48 30 -51 30 -2 0 -10 -10 -16 -22z"
       id="path1178" />
    <path
       d="M9418 4639 c-175 -52 -439 -164 -711 -301 -151 -75 -207 -108 -249 -147 -57 -51 -142 -315 -263 -814 -57 -236 -70 -279 -88 -289 -65 -33 -284 -193 -406 -296 -14 -11 -13 -12 4 -3 11 5 119 70 239 143 l220 133 21 110 c31 153 114 442 268 924 8 23 26 43 57 63 59 39 472 243 630 312 164 72 171 64 66 -75 -42 -54 -75 -99 -73 -99 2 0 50 9 106 21 57 11 105 19 107 16 2 -2 1 -24 -2 -48 -6 -43 -10 -46 -131 -134 -68 -49 -129 -95 -134 -102 -7 -8 13 -13 78 -17 201 -15 202 -23 18 -137 -74 -46 -135 -87 -135 -90 0 -3 41 -11 92 -18 125 -18 119 -13 100 -72 l-16 -50 -126 -67 -125 -66 69 -13 c77 -14 81 -17 89 -53 6 -24 -1 -29 -86 -74 -251 -133 -248 -131 -145 -122 42 4 79 3 82 -2 3 -5 2 -22 -3 -37 -7 -27 -14 -31 -132 -62 -298 -80 -359 -97 -359 -103 0 -3 74 -51 164 -105 l165 -99 -17 -28 c-22 -37 -38 -41 -111 -24 -33 8 -61 12 -61 10 0 -2 14 -10 30 -19 32 -16 38 -41 18 -67 -12 -15 -23 -15 -133 7 -66 12 -122 21 -124 20 -2 -2 25 -39 60 -82 34 -43 67 -84 72 -90 18 -24 -12 -43 -69 -43 -30 0 -54 -3 -54 -6 0 -3 16 -26 36 -52 l35 -47 -21 -17 c-21 -17 -24 -17 -70 8 l-48 26 -44 -24 c-39 -22 -43 -27 -43 -63 0 -35 -3 -40 -26 -43 -19 -2 -45 13 -100 57 l-74 59 -3 -104 c-1 -57 -4 -104 -6 -104 -2 0 -17 5 -35 11 -22 8 -39 25 -57 58 -13 25 -22 37 -20 26 3 -11 10 -41 17 -67 l11 -48 64 0 c73 0 70 -5 54 99 -6 35 -9 65 -7 67 2 2 30 -19 63 -47 97 -82 174 -89 174 -15 0 22 8 40 25 56 l25 24 34 -33 34 -33 46 31 c25 17 47 35 50 40 3 4 -8 29 -24 55 -17 26 -30 49 -30 52 0 2 18 -5 40 -16 21 -11 46 -20 54 -20 16 0 56 46 56 64 0 6 -32 48 -70 94 -39 45 -66 82 -61 82 5 0 68 -23 141 -51 143 -56 140 -56 204 -5 l28 24 -38 36 -39 35 60 1 c59 0 61 1 93 42 18 23 32 44 32 48 0 3 -76 43 -169 90 -93 46 -179 91 -192 100 -21 17 -21 17 32 24 240 31 378 97 433 207 14 29 26 61 26 71 0 11 20 27 57 45 59 29 144 107 177 163 l18 32 -101 -4 c-56 -1 -101 0 -101 5 0 4 5 7 12 7 6 0 48 18 93 40 91 44 148 97 164 155 18 66 13 69 -123 61 -66 -4 -118 -5 -116 -3 3 3 39 19 80 36 137 57 210 125 210 196 l0 28 -107 -7 c-60 -4 -119 -9 -133 -12 -22 -5 -23 -4 -8 8 10 7 45 29 80 48 123 70 217 179 218 253 0 23 -3 27 -22 22 -13 -3 -76 -18 -140 -34 -65 -15 -118 -27 -118 -25 0 2 38 24 85 51 105 58 186 129 214 186 43 88 25 94 -131 46z"
       id="path1180" />
    <path
       d="m 134.125,4255.0415 c 0,0 158.875,-404.2197 357.875,-876.2197 l 363.33146,-861.066 39.66854,0.066 49.42558,0.111 c 0,0 77.57442,161.889 256.57442,587.889 60,143 144,344 308,731 94,223 175.2344,417.9224 171.2344,417.9218 l -204.3126,-0.031 c 0,0 -74.9218,-174.8909 -149.9218,-358.8909 -351,-862 -421,-1030 -426,-1030 -4,0 -34,69 -68,153 -33,83 -84,208 -112,277 -60,144 -219,535 -295,725 -29,72 -63,152.9999 -76,179.9999 l -24,50 -2.25797,4.3569 -88.80453,-0.4194 z"
       id="path1182"
       inkscape:connector-curvature="0"
       sodipodi:nodetypes="cccccccsccscccccccc" />
    <path
       d="m 13460,3776 v -374 l -72,-27 -158.377,-59.7914 L 13230,3266 c 0.191,-24.9993 0.02,-47.2309 0.02,-47.2309 0,0 60.98,17.2309 111.98,36.2309 51,19 99,35 106,35 9,0 12,-64 12,-285 v -285 h 50 50 v 308 309 l 118,44 121.685,45.757 -0.221,46.243 0.235,51.7367 c 0,0 -196.213,-71.2543 -238.584,-84.6932 v -15 c 0,0 -1.115,79.9565 -1.115,374.9565 v 350 h -50 -50 z"
       id="path1188"
       inkscape:connector-curvature="0"
       sodipodi:nodetypes="ccccscssscccccccccccscccc" />
    <path
       d="M7595 3797 c-119 -62 -169 -96 -285 -193 -49 -41 -90 -74 -93 -74 -3 0 -8 23 -12 50 -4 30 -12 49 -18 47 -6 -2 -35 -48 -64 -103 -69 -129 -71 -165 -12 -253 31 -46 46 -61 58 -56 33 13 180 44 306 65 l130 22 115 84 c63 47 145 106 182 132 38 26 62 48 55 50 -6 1 -111 -18 -231 -43 -121 -24 -222 -43 -224 -40 -2 2 43 80 100 172 58 92 108 174 112 181 13 22 -18 12 -119 -41z"
       id="path1190" />
    <path
       d="M10990 3741 c-91 -24 -165 -66 -236 -136 -99 -98 -144 -210 -144 -361 0 -107 14 -176 50 -250 82 -168 242 -267 455 -281 270 -17 494 121 567 350 29 89 28 257 -1 348 -39 122 -136 234 -254 295 -99 52 -309 69 -437 35z m322 -101 c180 -55 288 -207 288 -406 0 -194 -113 -351 -292 -405 -93 -29 -253 -23 -341 11 -82 33 -176 121 -211 200 -115 255 7 534 264 606 73 20 218 17 292 -6z"
       id="path1194" />
    <path
       d="M12414 3741 c-188 -51 -316 -173 -368 -350 -21 -71 -21 -234 0 -314 35 -135 124 -246 244 -305 215 -106 521 -69 666 79 l38 39 -34 34 -33 35 -44 -39 c-148 -130 -406 -148 -575 -41 -224 142 -236 536 -22 693 91 67 143 82 284 83 120 0 128 -1 191 -31 37 -18 85 -48 107 -69 44 -39 58 -39 95 3 22 24 15 42 -31 79 -106 84 -189 113 -337 119 -87 3 -125 0 -181 -15z"
       id="path1196" />
    <path
       d="m 14408,3745 c -179,-45 -300,-162 -354,-340 -25,-82 -25,-258 0,-340 41,-136 127,-243 239,-298 172,-84 440,-71 587,28 29,19 60.625,39.2187 60.625,39.2187 2.38,-1.1508 2.078,-59.7343 2.078,-59.7343 l 0.422,-54.6406 49.406,-0.6563 L 15040,2719 v 510 511 h -49 -50 l -0.188,-50.1719 -0.187,-50.4687 L 14880,3676 c -86,54 -167,76 -300,80 -78,2 -133,-1 -172,-11 z m 315,-100 c 68,-18 128,-47 180,-87 l 37,-30 v -293 -294 l -35,-29 c -84,-69 -193,-102 -337,-102 -286,0 -443,173 -426,470 11,181 103,303 273,362 64,22 228,24 308,3 z"
       id="path1198"
       inkscape:connector-curvature="0"
       sodipodi:nodetypes="cccccccccccccccccccccccccsccc" />
    <path
       d="m 15350.293,3749.8849 c 0,0 58.707,-184.8849 130.707,-379.8849 72,-195 154.828,-418.8283 182.828,-495.8283 27,-77 60.243,-151.1717 60.243,-151.1717 l 3.37,-7.7261 47.368,-0.039 4.363,11.7647 c 0,0 74.828,190 156.828,413 81,223 149,407 151,409 8,11 11,1 304,-775 4.109,-11.0934 25.933,-60.6965 25.933,-60.6965 l 42.524,-0.4185 4.543,11.115 376,1015 2.974,10.3629 -96.002,0.2381 c 0,0 -37.972,-91.601 -66.972,-174.601 -159,-457 -234,-665 -239,-665 -4,0 -76,189 -160,420 -100.291,272.6876 -155.357,401.8945 -155.357,401.8945 l -7.366,18.0469 -50.379,0.039 -4.898,-11.9802 c 0,0 -38,-96 -75,-198 -37,-102 -105,-285 -149,-408 -45,-123 -85,-219 -89,-215 -4,4 -30,73 -58,153 -148,425 -249.514,679.6138 -249.514,679.6138 z"
       id="path1200"
       inkscape:connector-curvature="0"
       sodipodi:nodetypes="cscccccccccccccccscccccscsccc" />
    <path
       d="M7164 2875 c-7 -30 -12 -31 -30 -7 -12 15 -13 15 -14 1 0 -22 -83 -189 -168 -337 -88 -155 -106 -216 -100 -353 3 -94 7 -111 39 -179 45 -96 118 -183 205 -247 66 -47 156 -103 168 -103 3 0 6 14 6 30 0 56 53 193 143 370 116 230 130 271 130 390 0 107 -21 183 -78 285 -31 56 -117 166 -135 173 -5 2 -11 -11 -15 -28 -6 -27 -10 -31 -30 -26 -14 4 -25 1 -29 -7 -3 -8 -17 2 -38 26 -39 44 -46 45 -54 12z"
       id="path1202" />
    <path
       d="M9233 2525 c-119 -33 -236 -92 -351 -177 -78 -58 -233 -208 -301 -293 -80 -100 -208 -225 -280 -274 -34 -24 -97 -59 -139 -79 -69 -33 -84 -36 -169 -37 l-93 -1 -36 -60 c-19 -32 -42 -66 -50 -75 -14 -15 -11 -18 33 -33 134 -44 380 -60 546 -35 314 47 666 203 995 441 46 33 85 58 87 56 8 -8 -24 -137 -53 -211 -136 -351 -474 -597 -962 -702 -111 -24 -158 -28 -410 -35 -310 -9 -405 -21 -555 -71 -217 -72 -362 -215 -395 -388 -29 -155 -2 -250 95 -339 60 -55 109 -72 202 -72 l58 1 -40 21 c-130 67 -156 163 -83 300 47 89 199 243 253 257 145 37 288 54 514 58 244 6 369 -3 561 -38 233 -43 390 -33 600 37 168 56 371 176 508 299 134 122 252 302 302 460 18 58 22 94 22 206 0 120 -3 144 -27 215 -84 251 -290 479 -502 555 -76 28 -255 35 -330 14z"
       id="path1204" />
    <path
       style="stroke-width:1"
       d="m 1984.2031,4255.0418 c 0,0 158.875,-404.2198 357.875,-876.2198 l 363.3315,-861.0661 39.6686,0.067 49.4255,0.111 c 0,0 77.5744,161.889 256.5745,587.8891 60,142.9999 144,343.9999 308,731 94,222.9985 175.2343,417.921 171.2344,417.9204 L 3326,4254.7124 c 0,0 -74.9218,-174.8909 -149.9219,-358.8909 -351,-862 -421,-1030 -426,-1030 -4,0 -34,69 -68,153.0001 -33,82.9999 -84,208 -112,277 -60,144 -219,535 -295,725 -29,72 -63,153 -76,180 l -24,50 -2.258,4.3568 -88.8045,-0.4193 z"
       id="path1182-8"
       inkscape:connector-curvature="0"
       sodipodi:nodetypes="cccccccsccscccccccc" />
    <path
       style="stroke-width:1"
       d="m 3849.383,4255.0418 c 0,0 158.875,-404.2198 357.875,-876.2198 l 363.3314,-861.0661 39.6686,0.067 49.4256,0.111 c 0,0 77.5744,161.889 256.5745,587.8891 60,142.9999 144,343.9999 308,731 94,222.9985 175.2343,417.921 171.2344,417.9204 l -204.3126,-0.031 c 0,0 -74.9218,-174.8908 -149.9219,-358.8908 -351,-862 -421,-1030.0001 -426,-1030.0001 -4,0 -34,69 -68,153.0001 -33,82.9999 -84,208 -112,277 -60,144 -219,535 -295,725 -29,72 -63,153 -76,180 l -24,50 -2.258,4.3568 -88.8045,-0.4193 z"
       id="path1182-1"
       inkscape:connector-curvature="0"
       sodipodi:nodetypes="cccccccsccscccccccc" />
  </g>
</svg>
