<?xml version="1.0" standalone="no"?>
<!DOCTYPE svg PUBLIC "-//W3C//DTD SVG 20010904//EN"
 "http://www.w3.org/TR/2001/REC-SVG-20010904/DTD/svg10.dtd">
<svg version="1.0" xmlns="http://www.w3.org/2000/svg"
 width="256.000000pt" height="256.000000pt" viewBox="0 0 256.000000 256.000000"
 preserveAspectRatio="xMidYMid meet">
<metadata>
Created by potrace 1.15, written by Peter Selinger 2001-2017
</metadata>
<g transform="translate(0.000000,256.000000) scale(0.100000,-0.100000)"
fill="#000000" stroke="none">
<path d="M832 2220 c-299 -80 -502 -345 -502 -654 0 -115 20 -198 72 -306 53
-109 176 -236 283 -292 119 -62 208 -81 349 -75 129 5 188 20 297 77 l56 29
82 -83 c79 -79 83 -85 85 -132 2 -27 11 -65 20 -84 24 -48 391 -416 440 -442
48 -24 136 -27 186 -6 42 18 94 67 117 112 24 43 23 150 -1 196 -24 45 -391
413 -435 435 -18 9 -59 19 -90 22 -54 5 -59 8 -137 85 l-82 80 38 74 c51 100
74 197 73 314 0 117 -20 199 -74 307 -76 153 -220 276 -382 329 -113 37 -288
43 -395 14z m278 -221 c105 -24 211 -99 270 -191 52 -80 74 -165 68 -271 -8
-163 -101 -299 -256 -374 -74 -37 -81 -38 -182 -38 -125 1 -191 22 -273 89
-175 142 -224 358 -126 554 88 178 302 277 499 231z"/>
</g>
</svg>
