<svg  xmlns="http://www.w3.org/2000/svg" viewBox="0 0 950.000000 1056.000000"
 preserveAspectRatio="xMidYMid meet">

<g transform="translate(0.000000,1056.000000) scale(0.100000,-0.100000)"
fill="#000000" stroke="none">

<path class="left wing" d="M832 10157 c-33 -50 -63 -142 -69 -217 -14 -168 90 -405 256 -585 81
-88 70 -84 -59 20 -74 59 -146 119 -161 132 -14 13 -28 23 -32 23 -4 0 -15
-17 -26 -37 -65 -129 -84 -300 -42 -382 15 -29 134 -156 330 -353 168 -170
306 -308 305 -308 -2 0 -544 315 -648 376 -60 36 -110 63 -111 62 -56 -81
-145 -265 -152 -316 -5 -36 -2 -41 38 -74 45 -36 263 -193 402 -287 42 -30 77
-55 77 -57 0 -2 -28 7 -62 20 -35 13 -150 54 -256 91 -159 56 -195 66 -203 54
-14 -23 -10 -150 6 -214 20 -75 65 -145 113 -177 20 -14 178 -103 350 -198
172 -95 312 -174 310 -175 -2 -2 -140 17 -308 41 -233 33 -306 41 -312 31 -4
-6 -10 -36 -14 -65 -16 -131 37 -233 146 -281 25 -10 108 -36 185 -56 77 -21
143 -41 147 -44 4 -4 -102 -33 -237 -65 l-244 -59 -7 -44 c-9 -60 0 -132 20
-151 24 -24 185 -17 471 23 54 8 100 13 101 12 2 -1 -100 -85 -226 -187 -126
-102 -229 -190 -230 -197 -1 -38 110 -183 141 -183 5 0 36 13 67 29 88 45 254
112 246 100 -3 -5 -28 -42 -55 -81 -78 -114 -64 -123 79 -53 l92 44 -76 -91
c-41 -50 -85 -111 -97 -135 l-22 -45 28 -24 c53 -45 215 -72 269 -43 11 6 22
8 25 5 3 -2 -4 -48 -16 -101 -26 -117 -28 -243 -5 -291 29 -62 98 -82 132 -39
l19 24 0 -67 c0 -37 6 -86 12 -108 14 -51 55 -94 89 -94 35 0 108 78 152 162
19 36 38 64 42 62 4 -3 8 -26 8 -52 0 -66 27 -183 46 -202 14 -14 18 -12 39
13 13 15 36 63 50 108 28 90 31 111 12 85 -18 -24 -49 -17 -64 14 -6 14 -20
67 -30 118 l-18 92 -50 -44 c-68 -59 -144 -106 -172 -106 -29 0 -46 38 -38 84
5 29 2 33 -37 51 -33 15 -49 31 -68 70 -23 45 -25 61 -24 165 0 63 6 133 12
154 6 22 10 41 9 42 -1 1 -30 -3 -65 -9 -57 -10 -65 -9 -90 10 -23 17 -27 28
-26 66 0 42 7 58 82 207 1 3 -24 4 -56 2 -109 -6 -128 43 -56 148 19 28 32 50
30 50 -3 0 -89 -29 -193 -65 -103 -36 -193 -65 -199 -65 -6 0 -17 15 -26 33
l-16 33 244 208 c135 115 243 211 240 213 -2 3 -102 0 -221 -7 -118 -6 -220
-8 -225 -5 -6 3 -10 15 -10 25 0 21 17 27 230 86 74 20 138 40 142 43 4 4 -97
60 -225 126 -127 65 -235 123 -239 129 -4 6 -8 35 -8 64 l0 53 43 -5 c122 -17
540 -57 558 -54 20 3 -47 51 -590 421 -48 32 -92 65 -100 72 -11 11 -44 135
-37 142 1 1 137 -29 301 -67 165 -38 301 -67 302 -66 2 2 -95 91 -214 198
l-218 196 3 88 c1 49 5 94 7 101 3 9 57 -6 177 -48 95 -33 242 -85 325 -114
84 -29 150 -48 146 -41 -4 6 -151 175 -326 374 l-319 364 17 81 c9 45 20 87
24 93 4 8 77 -28 211 -101 112 -63 206 -112 208 -110 2 2 -73 129 -167 282
l-171 279 6 124 c4 69 7 126 8 127 1 1 227 -224 503 -500 l501 -502 -19 -140
c-87 -635 -175 -1399 -195 -1700 l-6 -100 112 -115 c62 -63 234 -244 382 -402
149 -159 273 -288 275 -288 5 0 7 -2 -120 195 -197 305 -362 538 -444 626
l-44 47 26 183 c66 475 89 637 150 1084 36 264 67 493 70 509 6 32 4 35 -124
196 -389 490 -792 940 -992 1107 -71 59 -184 133 -203 133 -6 0 -21 -15 -34
-33z"/>

<path class="right wing" d="M7745 10058 c-73 -14 -275 -71 -395 -113 -598 -208 -1620 -692 -1873
-888 -130 -100 -370 -878 -642 -2082 -31 -137 -61 -251 -66 -253 -33 -13 -243
-147 -368 -237 -147 -105 -611 -470 -611 -481 0 -7 -26 -22 280 163 146 89
384 233 530 320 l265 159 8 84 c18 205 194 845 466 1700 166 521 150 481 196
511 146 96 519 291 900 469 302 142 743 340 756 340 4 0 15 -12 23 -27 13 -28
12 -31 -155 -243 -93 -118 -165 -216 -161 -218 4 -1 111 20 237 47 127 27 231
48 232 47 1 -1 -3 -46 -9 -99 l-11 -97 -298 -217 c-288 -211 -297 -218 -266
-224 18 -4 137 -15 265 -25 l232 -18 0 -42 0 -42 -301 -185 c-203 -126 -294
-187 -282 -190 10 -3 115 -20 233 -38 118 -18 217 -34 219 -36 3 -2 -10 -50
-28 -106 l-34 -103 -195 -105 c-108 -57 -232 -123 -277 -146 -44 -24 -78 -43
-75 -43 3 -1 76 -13 164 -28 l158 -27 19 -60 c10 -33 19 -63 19 -67 0 -3 -62
-39 -137 -79 -76 -39 -160 -84 -188 -99 -27 -15 -120 -64 -205 -110 -85 -45
-157 -85 -160 -88 -3 -2 80 -2 183 1 l188 6 -7 -47 c-13 -89 -17 -94 -64 -108
-25 -7 -264 -70 -532 -140 -269 -70 -488 -130 -488 -133 1 -3 65 -45 143 -92
382 -231 582 -353 585 -355 9 -6 -92 -134 -107 -134 -10 0 -89 18 -177 39 -87
22 -160 38 -162 37 -1 -2 38 -27 87 -55 50 -29 93 -56 96 -61 7 -11 -46 -120
-58 -120 -12 0 -487 87 -522 96 -25 6 -28 5 -19 -7 7 -8 80 -99 163 -203 l151
-189 -20 -31 -19 -31 -131 -5 -130 -5 85 -109 c47 -59 85 -111 85 -115 0 -7
-84 -61 -96 -61 -4 0 -49 23 -98 52 l-89 51 -105 -52 c-100 -50 -104 -53 -99
-80 3 -16 9 -51 13 -78 l6 -49 -44 -17 c-24 -9 -47 -17 -52 -17 -4 0 -84 63
-179 140 -94 77 -173 138 -175 135 -2 -2 -4 -105 -3 -229 l2 -224 -62 19 c-33
10 -65 22 -70 25 -5 3 -34 55 -65 115 -31 61 -58 108 -60 106 -2 -2 14 -74 36
-159 22 -86 40 -159 40 -162 0 -7 274 -8 281 -1 3 2 -5 82 -18 177 -12 95 -22
179 -23 187 0 7 42 -27 93 -75 112 -106 183 -151 264 -166 57 -10 64 -9 109
13 l48 24 -3 62 c-1 35 0 72 4 82 5 17 93 91 107 91 2 0 30 -32 62 -71 36 -43
64 -68 72 -65 18 7 213 146 220 157 3 5 -19 44 -48 86 -85 126 -109 165 -96
157 7 -4 31 -21 53 -37 85 -61 169 -75 220 -35 28 22 64 89 65 119 0 13 -139
182 -298 362 -14 16 -8 15 48 -6 60 -23 521 -203 546 -213 8 -4 179 119 216
155 4 4 -30 36 -77 71 -46 36 -84 68 -84 72 -1 5 23 8 52 7 28 -1 84 -1 123 0
l71 1 83 96 c45 53 78 99 74 104 -5 4 -190 98 -411 210 -221 111 -410 208
-420 216 -16 12 -13 13 29 14 80 0 317 38 437 70 213 56 348 122 459 224 100
93 139 162 165 290 l12 57 75 32 c110 48 184 100 275 192 74 75 182 232 174
252 -2 4 -108 1 -236 -7 -128 -8 -229 -12 -225 -9 4 3 43 18 87 33 114 39 269
118 347 176 81 59 152 147 174 214 18 52 20 154 5 169 -6 6 -107 1 -258 -12
-136 -12 -259 -21 -273 -21 -14 1 27 18 90 39 347 116 534 273 548 461 2 37 1
69 -4 72 -5 3 -128 -8 -274 -23 -146 -15 -272 -28 -280 -28 -8 0 35 26 97 58
319 167 510 349 559 535 19 69 18 126 -1 126 -14 0 -577 -135 -605 -146 -34
-12 3 8 131 74 75 38 179 98 230 133 205 139 339 316 339 447 0 29 -3 32 -27
31 -16 -1 -50 -5 -78 -11z"/>

<path class="head" d="M3811 8290 c-312 -130 -576 -306 -898 -597 l-80 -72 -18 117 c-10 64
-21 127 -24 139 -6 21 -68 -85 -246 -416 -40 -75 -46 -171 -16 -252 25 -66 81
-155 138 -218 l40 -45 79 26 c123 41 371 90 750 148 l123 19 243 177 c134 97
318 232 410 298 91 67 165 122 163 124 -2 3 -71 -11 -743 -149 -162 -34 -295
-59 -297 -57 -3 3 106 179 446 721 27 42 43 77 37 76 -7 0 -55 -18 -107 -39z"/>

<path class="thorax" d="M2727 6260 c-13 -30 -26 -62 -29 -70 -3 -10 -13 2 -29 33 l-23 47
-32 -87 c-53 -147 -172 -376 -366 -701 -118 -198 -163 -308 -192 -479 -30
-167 -15 -377 36 -526 81 -236 250 -459 477 -627 101 -76 212 -145 308 -193
l70 -36 5 82 c4 61 18 117 51 217 62 186 137 345 377 805 115 219 160 384 160
585 0 202 -36 347 -135 545 -70 142 -184 301 -283 399 l-61 59 -22 -74 c-12
-41 -25 -78 -29 -82 -4 -4 -21 4 -39 18 -28 25 -31 25 -37 8 -20 -63 -14 -67
-157 102 l-26 30 -24 -55z"/>

<path class="tail" d="M7285 5529 c-396 -52 -839 -300 -1254 -704 -133 -130 -241 -251 -341
-385 -74 -99 -343 -372 -445 -452 -163 -127 -355 -239 -489 -283 -139 -46
-311 -58 -416 -31 -41 11 -56 12 -59 3 -24 -70 -124 -241 -166 -284 l-51 -53
86 -31 c107 -38 252 -73 400 -96 142 -21 514 -24 670 -5 645 79 1259 317 1941
752 142 91 444 303 454 320 3 6 11 10 17 10 14 0 2 -91 -28 -211 -220 -882
-1004 -1511 -2164 -1738 -306 -60 -506 -80 -675 -68 -167 11 -552 2 -725 -18
-536 -62 -922 -208 -1170 -442 -135 -127 -237 -299 -281 -473 -30 -123 -39
-385 -14 -461 66 -203 225 -375 406 -439 72 -25 238 -38 336 -25 l58 8 -50 17
c-89 30 -158 71 -217 128 -138 131 -153 286 -48 497 68 138 223 326 399 484
l88 79 110 26 c721 172 1561 177 2373 14 216 -43 459 -50 673 -19 418 61 814
217 1202 476 173 115 278 199 417 334 317 306 529 658 616 1026 24 101 27 128
27 330 0 176 -4 237 -18 305 -60 275 -185 532 -385 788 -260 334 -560 538
-892 607 -90 19 -289 26 -385 14z"/>
</g>
</svg>
